<?xml version="1.0" encoding="UTF-8"?>
<!DOCTYPE svg PUBLIC "-//W3C//DTD SVG 1.1//EN" "http://www.w3.org/Graphics/SVG/1.1/DTD/svg11.dtd">
<!-- Creator: CorelDRAW -->
<svg xmlns="http://www.w3.org/2000/svg" xml:space="preserve" width="45mm" height="70mm" shape-rendering="geometricPrecision" text-rendering="geometricPrecision" image-rendering="optimizeQuality" fill-rule="evenodd" clip-rule="evenodd"
viewBox="0 0 45 70"
 xmlns:xlink="http://www.w3.org/1999/xlink">
 <g id="Ebene_x0020_1">
  <metadata id="CorelCorpID_0Corel-Layer"/>
  <g>
   <path fill="black" fill-rule="nonzero" d="M43.0078 25.9262l-1.5 0 0 0 -0.0576 -1.3047 -0.1727 -1.2643 -0.2866 -1.2216 -0.3898 -1.1812 -0.4919 -1.1426 -0.5894 -1.1041 -0.6826 -1.0637 -0.7742 -1.0251 -0.8587 -0.9844 -0.9385 -0.948 -1.017 -0.9096 -1.0911 -0.8688 -1.1607 -0.8322 -1.2231 -0.7917 -1.2869 -0.753 -1.3404 -0.7145 -1.3954 -0.6757 -1.443 -0.6351 -1.4863 -0.5965 -1.5252 -0.5557 -1.5595 -0.5169 -1.5926 -0.4763 -1.6152 -0.4375 -1.6393 -0.3967 -1.6534 -0.3581 -1.6686 -0.3151 -1.6767 -0.2764 -1.6803 -0.2376 -1.6765 -0.1947 -1.6744 -0.156 -1.6617 -0.115 -1.6508 -0.0762 0.0704 -1.0508 1.6976 0.0762 1.7145 0.1192 1.7212 0.16 1.7293 0.2029 1.7271 0.2418 1.7235 0.2846 1.7156 0.3275 1.706 0.3663 1.6863 0.4091 1.668 0.4499 1.6394 0.4927 1.6123 0.5335 1.5778 0.5763 1.5391 0.6171 1.4958 0.6597 1.448 0.7005 1.399 0.7433 1.3397 0.786 1.2817 0.8287 1.2135 0.8694 1.1437 0.9142 1.0698 0.9548 0.9913 0.9974 0.9055 1.0422 0.8152 1.0827 0.7236 1.1255 0.6246 1.1659 0.5211 1.2086 0.4134 1.2512 0.2982 1.2918 0.1845 1.3301 0.0634 1.3707 0 0zm0 0l0 0 0 0 0 0zm-1.5 12.8872l0 0 0 -12.8872 1.5 0 0 12.8872 -1.5 0zm1.5 0l0 0 0 0 0 0zm-25.7512 21.2982l-1.5 0 0.5596 -0.5089 1.2123 -0.2449 1.2085 -0.2803 1.1995 -0.3145 1.1885 -0.346 1.1781 -0.3787 1.1629 -0.4105 1.1454 -0.4415 1.1256 -0.4696 1.104 -0.4989 1.083 -0.5273 1.0569 -0.5549 1.0287 -0.5796 0.9984 -0.6055 0.9659 -0.6305 0.9313 -0.6526 0.8976 -0.678 0.8586 -0.6964 0.8147 -0.7182 0.7744 -0.7388 0.7321 -0.7588 0.6817 -0.7759 0.635 -0.7919 0.5834 -0.8094 0.5294 -0.826 0.4764 -0.8397 0.4183 -0.8524 0.358 -0.8664 0.2985 -0.8796 0.2368 -0.8898 0.1702 -0.9012 0.1042 -0.9099 0.0333 -0.9216 1.5 0 -0.0391 0.9752 -0.1102 0.9675 -0.1818 0.9548 -0.2486 0.9434 -0.3161 0.929 -0.3814 0.916 -0.4417 0.9018 -0.4998 0.8849 -0.5588 0.8672 -0.6126 0.8506 -0.6644 0.8333 -0.7167 0.8129 -0.7615 0.7918 -0.8096 0.7718 -0.8557 0.751 -0.8938 0.7294 -0.9326 0.7028 -0.9723 0.6814 -1.0071 0.6553 -1.0394 0.6301 -1.0697 0.6044 -1.0979 0.5755 -1.124 0.5479 -1.1508 0.5195 -1.1726 0.4902 -1.1922 0.4579 -1.2097 0.4271 -1.2251 0.3951 -1.2411 0.3626 -1.2523 0.3269 -1.2613 0.2925 -1.2709 0.2573 0.5596 -0.5089zm-1.5 0l0 -0.404 0.5596 -0.1049 -0.5596 0.5089zm0.1611 6.7674l-0.1611 -0.3235 0 -6.4439 1.5 0 0 6.4439 -1.3389 0.3235zm1.3389 -0.3235l0 1.5251 -1.3389 -1.2016 1.3389 -0.3235zm-14.3036 -11.8834l1.2188 -0.0392 12.9237 11.5991 -1.1778 0.647 -12.9237 -11.5991 -0.041 -0.6078zm0.041 0.6078l-0.3273 -0.2937 0.2863 -0.3141 0.041 0.6078zm14.2626 -14.4991l-0.1201 0.2843 -12.9237 14.1756 -1.2598 -0.5686 12.9237 -14.1756 1.3799 0.2843zm-1.3799 -0.2843l1.3799 -1.5135 0 1.7978 -1.3799 -0.2843zm0.8848 7.2229l-1.0049 -0.4945 0 -6.4441 1.5 0 0 6.4441 -0.4951 0.4945zm0 0l-1.0049 0.2569 0 -0.7514 1.0049 0.4945zm24.1005 -15.1615l1.3946 -0.375 -0.0147 0.3997 -0.4855 0.7394 -0.5089 0.7183 -0.5348 0.6976 -0.5574 0.6774 -0.5798 0.6575 -0.6047 0.6383 -0.6233 0.6171 -0.6474 0.5987 -0.6684 0.5825 -0.6887 0.5608 -0.709 0.5456 -0.7316 0.5288 -0.748 0.5103 -0.7671 0.4943 -0.7886 0.4788 -0.804 0.4617 -0.825 0.4469 -0.8395 0.4328 -0.8568 0.4188 -0.8735 0.4034 -0.8901 0.3904 -0.9062 0.3778 -0.9219 0.3658 -0.9374 0.3519 -0.9494 0.3428 -0.9671 0.33 -0.9784 0.3194 -0.9923 0.3073 -1.0059 0.3 -1.0162 0.2907 -1.032 0.28 -1.0415 0.2717 -0.5098 -0.989 1.0239 -0.2675 1.0086 -0.276 0.9986 -0.2825 0.9825 -0.2916 0.9689 -0.3033 0.955 -0.3112 0.9377 -0.3216 0.926 -0.3304 0.908 -0.3437 0.8927 -0.3534 0.8768 -0.3656 0.8609 -0.378 0.8443 -0.391 0.8274 -0.4024 0.8103 -0.4162 0.7898 -0.4305 0.7746 -0.4451 0.7536 -0.4582 0.7377 -0.4737 0.7188 -0.4897 0.6964 -0.5042 0.6796 -0.5208 0.6595 -0.5402 0.639 -0.5537 0.6182 -0.5739 0.5999 -0.5925 0.5753 -0.6093 0.5564 -0.6287 0.534 -0.6486 0.5114 -0.6688 0.4913 -0.6893 0.4679 -0.7106 -0.0147 0.3997zm1.3946 -0.375l0.1103 0.2018 -0.125 0.1979 0.0147 -0.3997zm0 0l-0.6973 0.1875 0 0 0 0 0 0 0.6973 -0.1875zm0 0l0.1103 0.2018 -0.125 0.1979 0.0147 -0.3997zm-39.4237 -15.9561l1.5 0 -0.75 -0.5275 1.4773 0.0181 1.4847 0.0481 1.487 0.0822 1.487 0.1121 1.485 0.148 1.4805 0.1777 1.4712 0.2097 1.4653 0.2433 1.4546 0.2751 1.4415 0.3087 1.4263 0.3382 1.4059 0.3719 1.3891 0.4054 1.3674 0.4346 1.3435 0.4681 1.3172 0.4994 1.289 0.5327 1.2583 0.5639 1.2257 0.5971 1.1908 0.6282 1.1536 0.6591 1.1143 0.6922 1.0729 0.7252 1.0264 0.7561 0.9833 0.7869 0.9325 0.8197 0.8822 0.8525 0.827 0.8831 0.7752 0.9139 0.7127 0.9462 0.6567 0.9769 0.5896 1.0093 -1.3946 0.375 -0.5662 -0.9599 -0.6215 -0.9315 -0.6833 -0.901 -0.7342 -0.8725 -0.7918 -0.8419 -0.8412 -0.8113 -0.8915 -0.7827 -0.9365 -0.7539 -0.9854 -0.7231 -1.0259 -0.6922 -1.0675 -0.6634 -1.1068 -0.6345 -1.1438 -0.6034 -1.1789 -0.5723 -1.2115 -0.5433 -1.242 -0.5121 -1.2704 -0.483 -1.2965 -0.4515 -1.3206 -0.4224 -1.3423 -0.3888 -1.3649 -0.3595 -1.3793 -0.33 -1.3947 -0.2963 -1.4076 -0.2669 -1.4185 -0.2351 -1.4302 -0.2055 -1.4337 -0.1737 -1.438 -0.1398 -1.4402 -0.1121 -1.44 -0.078 -1.4379 -0.0481 -1.4363 -0.0139 -0.75 -0.5275zm0.75 0.5275l-0.75 0 0 -0.5275 0.75 0.5275zm0.0352 -14.0079l0.7148 0.5254 0 12.955 -1.5 0 0 -12.955 0.7852 -0.5254zm-0.7852 0.5254l0 -0.5516 0.7852 0.0262 -0.7852 0.5254z"/>
  </g>
 </g>
</svg>
