<?xml version="1.0" encoding="UTF-8"?>
<!DOCTYPE svg PUBLIC "-//W3C//DTD SVG 1.1//EN" "http://www.w3.org/Graphics/SVG/1.1/DTD/svg11.dtd">
<!-- Creator: CorelDRAW -->
<svg xmlns="http://www.w3.org/2000/svg" xml:space="preserve" width="45mm" height="70mm" shape-rendering="geometricPrecision" text-rendering="geometricPrecision" image-rendering="optimizeQuality" fill-rule="evenodd" clip-rule="evenodd"
viewBox="0 0 45 70"
 xmlns:xlink="http://www.w3.org/1999/xlink">
 <g id="Ebene_x0020_1">
  <metadata id="CorelCorpID_0Corel-Layer"/>
  <g id="_40399800">
   <g>
    <path id="_40401656" fill="black" fill-rule="nonzero" d="M36.0288 58.306l1.2 0 -0.6 0.4965 -1.3567 0.049 -1.2728 0.1395 -1.1995 0.2254 -1.1318 0.3028 -1.0726 0.3697 -1.0192 0.4303 -0.974 0.4862 -0.9322 0.5318 -0.8964 0.5687 -0.8689 0.6013 -0.8448 0.6233 -0.8265 0.6389 -0.812 0.6459 -0.8055 0.6427 -0.8072 0.6348 -0.8102 0.6145 -0.8236 0.5879 -0.843 0.5505 -0.8684 0.509 -0.9017 0.4529 -0.9388 0.3884 -0.9839 0.3136 -1.0351 0.2282 -1.0849 0.1346 -1.1384 0.0266 -1.1978 -0.084 -1.2558 -0.2052 -1.3224 -0.3327 -1.3897 -0.4688 -1.4657 -0.6074 -1.5472 -0.7565 -1.6348 -0.914 0.6938 -0.8068 1.5832 0.883 1.4816 0.7255 1.3859 0.5764 1.2961 0.4338 1.2098 0.3055 1.134 0.1858 1.0618 0.0764 1.0024 -0.0266 0.9491 -0.1152 0.9037 -0.2012 0.8715 -0.2786 0.845 -0.3496 0.8221 -0.4141 0.8074 -0.4702 0.7962 -0.5235 0.7908 -0.5645 0.7914 -0.5991 0.7932 -0.623 0.8055 -0.6427 0.8212 -0.6499 0.8407 -0.6505 0.8682 -0.6427 0.9017 -0.6245 0.9432 -0.5999 0.9886 -0.5628 1.0396 -0.5172 1.0988 -0.4651 1.1616 -0.4009 1.2304 -0.326 1.3025 -0.2448 1.3806 -0.1549 1.4599 -0.053 -0.6 0.4965zm1.2 0l0 0.4964 -0.6 0.0001 0.6 -0.4965zm-0.7758 -5.5833l0.7758 0.4732 0 5.1101 -1.2 0 0 -5.1101 0.4242 -0.4732zm-0.4242 0.4732l0 -0.365 0.4242 -0.1082 -0.4242 0.4732zm1.6999 -0.7768l0.1758 0.9697 -1.0999 0.2803 -0.3516 -0.9464 1.0999 -0.2803 0.1758 -0.0233zm-0.1758 0.0233l0.0914 -0.0233 0.0844 0 -0.1758 0.0233zm2.2563 0.4732l-0.6 0.4965 -1.4805 0 0 -0.993 1.4805 0 0.6 0.4965zm0 0l0 0.4964 -0.6 0.0001 0.6 -0.4965zm-0.7125 -5.9472l0.7125 0.4868 0 5.4604 -1.2 0 0 -5.4604 0.4875 -0.4868zm-0.4875 0.4868l0 -0.4086 0.4875 -0.0782 -0.4875 0.4868zm1.9114 -0.7066l0.1125 0.9833 -1.3114 0.2101 -0.225 -0.9736 1.3114 -0.2101 0.1125 -0.0097zm-0.1125 0.0097l0.0605 -0.0097 0.052 0 -0.1125 0.0097zm2.2777 0.4868l-0.6 0.4965 -1.5652 0 0 -0.993 1.5652 0 0.6 0.4965zm0 0l0 0.4965 -0.6 0 0.6 -0.4965zm-0.6 -44.2862l0.6 0.4965 0 43.7897 -1.2 0 0 -43.7897 0.6 -0.4965zm0 0l0.6 0 0 0.4965 -0.6 -0.4965zm-34.3569 0.4965l0.6 -0.4965 33.7569 0 0 0.993 -33.7569 0 -0.6 -0.4965zm0 0l0 -0.4965 0.6 0 -0.6 0.4965zm0.6 5.9921l-0.6 -0.4965 0 -5.4956 1.2 0 0 5.4956 -0.6 0.4965zm0.6 -0.4965l0 0.4965 -0.6 0 0.6 -0.4965zm-3.8228 0l0.6 -0.4965 2.6228 0 0 0.993 -2.6228 0 -0.6 -0.4965zm0 0l0 -0.4965 0.6 0 -0.6 0.4965zm0.6 6.1669l-0.6 -0.4965 0 -5.6704 1.2 0 0 5.6704 -0.6 0.4965zm0.6 -0.4965l0 0.4965 -0.6 0 0.6 -0.4965zm-3.9919 0l0.6 -0.4965 2.7919 0 0 0.993 -2.7919 0 -0.6 -0.4965zm0 0l0 -0.4964 0.6 -0.0001 -0.6 0.4965zm0.2531 51.509l-0.2531 -0.4034 0 -51.1056 1.2 0 0 51.1056 -0.9469 0.4034zm0 0l-0.2531 -0.1495 0 -0.2539 0.2531 0.4034z"/>
   </g>
   <g>
    <path fill="black" fill-rule="nonzero" d="M37.1842 14.6214l-0.5977 0.4965 -30.9227 0 0 -0.993 30.9227 0 0.5977 0.4965zm-0.5977 -0.4965l0.5971 0 0.0006 0.4965 -0.5977 -0.4965zm-0.5554 39.071l-0.0423 -38.5745 1.1954 0 0.0423 38.5745 -1.1954 0z"/>
   </g>
   <g>
    <path fill="black" fill-rule="nonzero" d="M39.7646 8.951l-0.5977 0.4965 -30.8803 0 0 -0.993 30.8803 0 0.5977 0.4965zm-0.5977 -0.4965l0.5971 0 0.0006 0.4965 -0.5977 -0.4965zm-0.5554 39.0007l-0.0423 -38.5042 1.1954 0 0.0423 38.5042 -1.1954 0z"/>
   </g>
  </g>
 </g>
</svg>
