<?xml version="1.0" encoding="UTF-8"?>
<!DOCTYPE svg PUBLIC "-//W3C//DTD SVG 1.1//EN" "http://www.w3.org/Graphics/SVG/1.1/DTD/svg11.dtd">
<!-- Creator: CorelDRAW -->
<svg xmlns="http://www.w3.org/2000/svg" xml:space="preserve" width="45mm" height="90mm" style="shape-rendering:geometricPrecision; text-rendering:geometricPrecision; image-rendering:optimizeQuality; fill-rule:evenodd; clip-rule:evenodd"
viewBox="0 0 45 90"
 xmlns:xlink="http://www.w3.org/1999/xlink">
 <defs>
  <style type="text/css">
   <![CDATA[
    .fil0 {fill:black;fill-rule:nonzero}
   ]]>
  </style>
 </defs>
 <g id="Ebene_x0020_1">
  <metadata id="CorelCorpID_0Corel-Layer"/>
  <g>
   <path class="fil0" d="M43.0078 32.9719l-1.5 0 0 0 -0.0576 -1.6405 -0.1727 -1.5895 -0.2866 -1.536 -0.3898 -1.485 -0.4919 -1.4367 -0.5894 -1.3882 -0.6826 -1.3373 -0.7742 -1.2888 -0.8587 -1.2378 -0.9385 -1.1919 -1.017 -1.1435 -1.0911 -1.0923 -1.1607 -1.0465 -1.2231 -0.9954 -1.2869 -0.9468 -1.3404 -0.8983 -1.3954 -0.8496 -1.443 -0.7985 -1.4863 -0.7499 -1.5252 -0.6987 -1.5595 -0.65 -1.5926 -0.5988 -1.6152 -0.5502 -1.6393 -0.4988 -1.6534 -0.4501 -1.6686 -0.3963 -1.6767 -0.3476 -1.6803 -0.2987 -1.6765 -0.2449 -1.6744 -0.196 -1.6617 -0.1446 -1.6508 -0.0959 0.0704 -1.3212 1.6976 0.0959 1.7145 0.1498 1.7212 0.2012 1.7293 0.2553 1.7271 0.3039 1.7235 0.3578 1.7156 0.4119 1.706 0.4605 1.6863 0.5144 1.668 0.5656 1.6394 0.6196 1.6123 0.6708 1.5778 0.7245 1.5391 0.7759 1.4958 0.8295 1.448 0.8808 1.399 0.9345 1.3397 0.9882 1.2817 1.042 1.2135 1.0931 1.1437 1.1493 1.0698 1.2005 0.9913 1.2541 0.9055 1.3104 0.8152 1.3614 0.7236 1.4149 0.6246 1.466 0.5211 1.5195 0.4134 1.5732 0.2982 1.624 0.1845 1.6725 0.0634 1.7233 0 0zm0 0l0 0 0 0 0 0zm-1.5 16.2032l0 0 0 -16.2032 1.5 0 0 16.2032 -1.5 0zm1.5 0l0 0 0 0 0 0zm-25.7512 26.7779l-1.5 0 0.5596 -0.6399 1.2123 -0.308 1.2085 -0.3522 1.1995 -0.3955 1.1885 -0.4352 1.1781 -0.4761 1.1629 -0.5163 1.1454 -0.5551 1.1256 -0.5904 1.104 -0.6273 1.083 -0.6629 1.0569 -0.6978 1.0287 -0.7286 0.9984 -0.7613 0.9659 -0.7928 0.9313 -0.8205 0.8976 -0.8525 0.8586 -0.8756 0.8147 -0.9028 0.7744 -0.9289 0.7321 -0.9541 0.6817 -0.9754 0.635 -0.9958 0.5834 -1.0177 0.5294 -1.0384 0.4764 -1.0556 0.4183 -1.0717 0.358 -1.0893 0.2985 -1.1058 0.2368 -1.1187 0.1702 -1.1331 0.1042 -1.1439 0.0333 -1.1587 1.5 0 -0.0391 1.2261 -0.1102 1.2163 -0.1818 1.2005 -0.2486 1.1861 -0.3161 1.168 -0.3814 1.1515 -0.4417 1.1339 -0.4998 1.1126 -0.5588 1.0902 -0.6126 1.0695 -0.6644 1.0476 -0.7167 1.022 -0.7615 0.9955 -0.8096 0.9703 -0.8557 0.9444 -0.8938 0.917 -0.9326 0.8835 -0.9723 0.8569 -1.0071 0.8238 -1.0394 0.7923 -1.0697 0.7598 -1.0979 0.7236 -1.124 0.6889 -1.1508 0.6531 -1.1726 0.6164 -1.1922 0.5759 -1.2097 0.5369 -1.2251 0.4969 -1.2411 0.4558 -1.2523 0.4111 -1.2613 0.3678 -1.2709 0.3236 0.5596 -0.6399zm-1.5 0l0 -0.508 0.5596 -0.1319 -0.5596 0.6399zm0.1611 8.5084l-0.1611 -0.4067 0 -8.1017 1.5 0 0 8.1017 -1.3389 0.4067zm1.3389 -0.4067l0 1.9175 -1.3389 -1.5108 1.3389 -0.4067zm-14.3036 -14.9405l1.2188 -0.0492 12.9237 14.583 -1.1778 0.8134 -12.9237 -14.583 -0.041 -0.7642zm0.041 0.7642l-0.3273 -0.3693 0.2863 -0.3949 0.041 0.7642zm14.2626 -18.2303l-0.1201 0.3575 -12.9237 17.8236 -1.2598 -0.715 12.9237 -17.8236 1.3799 0.3575zm-1.3799 -0.3575l1.3799 -1.903 0 2.2605 -1.3799 -0.3575zm0.8848 9.0809l-1.0049 -0.6217 0 -8.1017 1.5 0 0 8.1017 -0.4951 0.6217zm0 0l-1.0049 0.3229 0 -0.9446 1.0049 0.6217zm24.1005 -19.0623l1.3946 -0.4714 -0.0147 0.5025 -0.4855 0.9297 -0.5089 0.9031 -0.5348 0.8771 -0.5574 0.8518 -0.5798 0.8267 -0.6047 0.8024 -0.6233 0.776 -0.6474 0.7527 -0.6684 0.7325 -0.6887 0.7051 -0.709 0.686 -0.7316 0.6649 -0.748 0.6416 -0.7671 0.6216 -0.7886 0.602 -0.804 0.5804 -0.825 0.562 -0.8395 0.544 -0.8568 0.5267 -0.8735 0.5072 -0.8901 0.4907 -0.9062 0.4751 -0.9219 0.4599 -0.9374 0.4425 -0.9494 0.4308 -0.9671 0.4148 -0.9784 0.4016 -0.9923 0.3864 -1.0059 0.377 -1.0162 0.3654 -1.032 0.352 -1.0415 0.3415 -0.5098 -1.2434 1.0239 -0.3363 1.0086 -0.3468 0.9986 -0.3552 0.9825 -0.3666 0.9689 -0.3812 0.955 -0.3912 0.9377 -0.4044 0.926 -0.4154 0.908 -0.4321 0.8927 -0.4443 0.8768 -0.4595 0.8609 -0.4753 0.8443 -0.4916 0.8274 -0.5059 0.8103 -0.5234 0.7898 -0.5412 0.7746 -0.5596 0.7536 -0.5762 0.7377 -0.5956 0.7188 -0.6158 0.6964 -0.6337 0.6796 -0.655 0.6595 -0.6791 0.639 -0.6963 0.6182 -0.7217 0.5999 -0.7448 0.5753 -0.7662 0.5564 -0.7905 0.534 -0.8154 0.5114 -0.8409 0.4913 -0.8669 0.4679 -0.8933 -0.0147 0.5025zm1.3946 -0.4714l0.1103 0.2537 -0.125 0.2488 0.0147 -0.5025zm0 0l-0.6973 0.2357 0 0 0 0 0 0 0.6973 -0.2357zm0 0l0.1103 0.2537 -0.125 0.2488 0.0147 -0.5025zm-39.4237 -20.061l1.5 0 -0.75 -0.6632 1.4773 0.0228 1.4847 0.0604 1.487 0.1033 1.487 0.1409 1.485 0.1861 1.4805 0.2236 1.4712 0.2635 1.4653 0.3059 1.4546 0.3458 1.4415 0.3882 1.4263 0.4252 1.4059 0.4675 1.3891 0.5096 1.3674 0.5465 1.3435 0.5884 1.3172 0.6279 1.289 0.6698 1.2583 0.7089 1.2257 0.7507 1.1908 0.7897 1.1536 0.8288 1.1143 0.8704 1.0729 0.9117 1.0264 0.9506 0.9833 0.9894 0.9325 1.0306 0.8822 1.0718 0.827 1.1103 0.7752 1.1489 0.7127 1.1898 0.6567 1.2282 0.5896 1.269 -1.3946 0.4714 -0.5662 -1.2068 -0.6215 -1.1712 -0.6833 -1.1328 -0.7342 -1.0971 -0.7918 -1.0585 -0.8412 -1.02 -0.8915 -0.984 -0.9365 -0.9478 -0.9854 -0.9092 -1.0259 -0.8703 -1.0675 -0.834 -1.1068 -0.7978 -1.1438 -0.7587 -1.1789 -0.7195 -1.2115 -0.6831 -1.242 -0.6438 -1.2704 -0.6071 -1.2965 -0.5678 -1.3206 -0.5309 -1.3423 -0.489 -1.3649 -0.4519 -1.3793 -0.4148 -1.3947 -0.3726 -1.4076 -0.3354 -1.4185 -0.2957 -1.4302 -0.2583 -1.4337 -0.2184 -1.438 -0.1757 -1.4402 -0.1409 -1.44 -0.0981 -1.4379 -0.0604 -1.4363 -0.0176 -0.75 -0.6632zm0.75 0.6632l-0.75 0 0 -0.6632 0.75 0.6632zm0.0352 -17.6124l0.7148 0.6606 0 16.2886 -1.5 0 0 -16.2886 0.7852 -0.6606zm-0.7852 0.6606l0 -0.6936 0.7852 0.033 -0.7852 0.6606z"/>
  </g>
 </g>
</svg>
